# xmcd
#
# Track frame offsets: 
#        187
#        15117
#        30220
#        45805
#        58850
#        71742
#        88637
#        103182
#        117230
#        131660
#        147442
#        162892
#        176245
#        192910
#        208322
#        222777
#        237587
#        248352
#        260985
#        276047
#        288567
#
# Disc length: 4046 seconds
#
# Revision: 3
# Processed by: cddbd v1.5.2PL0 Copyright (c) Steve Scherf et al.
# Submitted via: ExactAudioCopyFreeDBPlugin 1.0
#
DISCID=380fcc15
DTITLE=Various Artist - We'll Meet Again Vol. 1
DYEAR=1900
DGENRE=Big Band
TTITLE0=Peggy Lee and Benny Goodman Orchestra - We'll Meet Again
TTITLE1=Tony Martin - The Last Time I Saw Paris
TTITLE2=Artie Shaw - Moonglow
TTITLE3=Dinah Shore - A Boy in Khaki - A Girl in Lace
TTITLE4=Adelaide Hall - As Time Goes By
TTITLE5=Glenn Miller - Intermezzo
TTITLE6=Bing Crosby  - I'm Thinking Tonight of My Blue Eyes
TTITLE7=The Ink Spots - Don't Get Around Much Anymore
TTITLE8=Connie Boswell - Sand in My Shoes
TTITLE9=Artie Shaw -  I Cover the Waterfront
TTITLE10=Marlene Dietrich - Lili Marlene
TTITLE11=Jimmy Dorsey - I Remember You
TTITLE12=Dorothy Lamour - Moon over Burma
TTITLE13=Herb Jeffries, Duke Ellington - Flamingo
TTITLE14=Mary Martin - I'll Walk Alone
TTITLE15=Lew Stone - The White Cliffs of Dover
TTITLE16=The Jesters - Ma, I Miss Your Apple Pie
TTITLE17=Flanagan and Allen - If a Grey-Haired Lady
TTITLE18=Vera Lynn - White Christmas
TTITLE19=Dick Haymes - You'll Never Know
TTITLE20=Harry Leader - Goodnight Wherever You Are
EXTD=
EXTT0=
EXTT1=
EXTT2=
EXTT3=
EXTT4=
EXTT5=
EXTT6=
EXTT7=
EXTT8=
EXTT9=
EXTT10=
EXTT11=
EXTT12=
EXTT13=
EXTT14=
EXTT15=
EXTT16=
EXTT17=
EXTT18=
EXTT19=
EXTT20=
PLAYORDER=
